<?xml version="1.0" standalone="no"?>
<!DOCTYPE svg PUBLIC "-//W3C//DTD SVG 20010904//EN"
 "http://www.w3.org/TR/2001/REC-SVG-20010904/DTD/svg10.dtd">
<svg version="1.0" xmlns="http://www.w3.org/2000/svg"
 width="512.000000pt" height="512.000000pt" viewBox="0 0 512.000000 512.000000"
 preserveAspectRatio="xMidYMid meet">
<metadata>
Created by potrace 1.11, written by Peter Selinger 2001-2013
</metadata>
<g transform="translate(0.000000,512.000000) scale(0.100000,-0.100000)"
fill="#000000" stroke="none">
<path d="M2080 4255 c-7 -8 -10 -22 -6 -30 3 -8 3 -28 0 -44 -6 -27 -9 -29
-53 -28 -39 2 -46 -1 -49 -18 -2 -17 -9 -20 -36 -17 -39 4 -92 -20 -100 -45
-3 -10 -2 -38 2 -63 6 -36 12 -44 26 -42 10 2 29 -7 42 -19 14 -14 31 -20 44
-16 30 8 25 -20 -7 -37 -16 -8 -40 -25 -55 -40 -26 -23 -28 -31 -28 -106 0
-92 13 -109 56 -70 31 30 31 23 -1 -19 -18 -26 -32 -34 -60 -36 -44 -2 -49 5
-36 50 7 27 6 35 -4 35 -7 0 -15 6 -18 14 -4 11 -22 15 -58 14 -52 0 -77 12
-65 31 5 7 12 7 25 -1 26 -16 75 6 106 46 34 45 37 81 7 90 -9 3 -22 16 -27
28 -16 36 -42 27 -77 -27 -28 -42 -38 -49 -66 -50 -17 0 -38 -7 -45 -15 -16
-17 -51 -107 -52 -132 0 -23 -11 -32 -18 -13 -4 8 -2 15 4 15 6 0 7 4 4 10 -3
5 1 20 10 33 18 28 11 39 -20 31 -20 -5 -22 -2 -18 20 5 27 33 58 33 37 0 -28
32 -7 52 33 17 36 25 43 38 36 13 -7 25 0 53 30 49 54 51 74 8 78 -56 6 -77
-5 -100 -50 -19 -40 -130 -140 -169 -153 -9 -3 -30 -23 -45 -45 -37 -52 -58
-53 -50 -4 5 28 2 40 -11 49 -9 7 -15 19 -14 26 2 7 -6 15 -17 17 -11 2 -35
11 -52 19 -18 9 -44 13 -57 9 -41 -10 -85 -103 -57 -120 5 -4 23 5 39 19 23
20 32 22 40 12 16 -19 8 -52 -14 -54 -29 -2 -64 -14 -64 -22 0 -4 -7 -16 -15
-27 -14 -18 -14 -18 -8 4 7 30 -17 29 -46 -2 -28 -30 -39 -96 -19 -117 7 -8
13 -25 12 -39 -2 -32 15 -80 28 -80 6 0 17 8 24 18 12 15 13 15 14 -9 0 -29
58 -149 72 -149 5 0 18 5 28 10 22 12 36 -2 23 -22 -12 -20 -14 -52 -3 -68 8
-13 13 -13 37 1 18 10 27 22 26 35 -5 36 7 65 25 62 9 -1 22 1 29 5 6 4 24 2
39 -5 25 -11 29 -10 53 19 l27 32 11 -27 c7 -15 19 -44 28 -64 16 -40 35 -50
35 -20 0 20 36 59 46 50 8 -9 -23 -66 -61 -113 -18 -22 -44 -62 -57 -89 -24
-48 -25 -48 -76 -51 -40 -2 -49 0 -45 11 3 8 20 21 38 28 31 13 85 88 85 119
0 7 -11 20 -25 27 -14 7 -25 17 -25 22 0 15 -26 8 -43 -10 -10 -10 -17 -28
-17 -39 0 -16 -6 -20 -27 -20 -41 0 -65 -36 -57 -87 3 -23 10 -47 16 -53 6 -7
8 -20 4 -28 -5 -13 -19 -15 -85 -11 -65 4 -85 1 -115 -15 -23 -12 -46 -17 -61
-13 -33 8 -31 14 15 47 39 28 75 79 63 90 -3 4 -2 14 2 24 5 10 9 23 9 28 1 6
9 24 18 41 15 28 15 34 3 44 -8 7 -24 9 -37 5 -39 -12 -159 -96 -177 -124 -16
-27 -41 -39 -41 -21 0 5 4 10 10 10 5 0 16 13 24 29 12 23 13 31 3 39 -22 18
-74 -14 -160 -100 -65 -65 -89 -96 -104 -139 -11 -29 -23 -61 -26 -69 -4 -10
-6 -9 -6 6 -1 12 12 48 29 80 16 32 30 65 30 72 0 7 14 31 30 54 53 72 28 97
-31 31 -89 -99 -186 -375 -190 -539 -2 -66 24 -124 57 -124 12 0 26 5 29 11 5
6 13 3 22 -10 20 -29 31 -26 26 7 l-5 27 19 -22 c20 -24 78 -39 88 -23 3 5 16
10 28 9 14 0 -8 -15 -56 -38 -69 -33 -83 -36 -132 -31 -33 4 -67 15 -84 28
-17 12 -38 22 -48 22 -31 0 -69 -45 -92 -109 -14 -36 -30 -63 -42 -66 -27 -9
-67 -60 -78 -101 -10 -37 2 -84 21 -84 6 0 -2 -14 -16 -31 -28 -32 -24 -60 10
-73 36 -14 42 -8 34 35 -13 73 6 154 48 201 8 10 19 15 23 12 13 -7 11 -91 -2
-115 -14 -27 -2 -58 27 -71 21 -10 23 -13 10 -27 -23 -26 -65 -123 -67 -156
-5 -69 30 -147 71 -158 18 -5 25 4 21 27 -2 11 29 46 41 46 4 0 4 -8 0 -17 -5
-10 -15 -31 -23 -47 -13 -27 -20 -30 -64 -33 -28 -2 -60 -8 -73 -15 -35 -18
-91 -101 -96 -139 -4 -38 15 -83 38 -92 23 -9 30 12 11 33 -23 25 -26 79 -8
107 22 33 34 18 17 -22 -7 -18 -11 -41 -8 -50 9 -21 56 -45 91 -45 34 0 73
-25 73 -47 0 -17 -45 -63 -61 -63 -5 0 -28 17 -52 39 -34 31 -46 37 -65 30
-29 -11 -28 -40 3 -69 17 -16 25 -33 23 -49 -4 -36 -22 -36 -39 1 -9 22 -21
33 -34 33 -20 0 -21 -4 -16 -67 0 -9 18 -26 38 -38 43 -25 35 -35 -36 -44 -48
-6 -81 -29 -81 -58 0 -10 -12 -30 -26 -43 -22 -21 -24 -26 -12 -44 16 -25 21
-26 54 -4 25 16 26 16 48 -12 20 -24 25 -26 45 -16 18 10 27 9 56 -9 45 -28
68 -20 100 33 14 26 36 47 55 54 20 8 30 18 30 33 0 12 4 19 9 16 6 -4 5 -20
-1 -42 -13 -47 -6 -61 34 -72 42 -11 44 -37 3 -38 -16 -1 -36 -2 -42 -3 -20
-2 -15 -29 7 -43 11 -7 20 -20 20 -29 0 -23 42 -59 86 -74 73 -25 151 1 187
62 l21 37 13 -31 c15 -38 48 -63 76 -57 12 2 35 -1 53 -8 41 -15 77 -4 94 28
13 23 12 27 -4 36 -17 9 -17 11 2 31 10 12 27 37 38 55 10 17 24 32 31 32 17
0 17 -5 -9 -49 -14 -24 -19 -44 -14 -57 7 -18 8 -18 26 6 15 20 20 22 34 11 9
-7 16 -9 16 -3 0 13 25 22 80 29 50 5 74 26 89 78 14 52 3 85 -30 92 -16 3
-29 9 -29 13 0 12 89 90 102 90 8 0 29 13 48 29 57 47 111 71 158 71 66 0 285
-79 346 -125 17 -12 42 -26 56 -30 61 -16 154 -71 185 -110 48 -58 79 -145 69
-198 -4 -23 -8 -123 -9 -222 -2 -159 -5 -185 -24 -225 -11 -25 -21 -51 -21
-58 0 -37 -63 -100 -134 -136 -40 -20 -78 -36 -85 -36 -7 0 -25 -7 -41 -15
-26 -14 -33 -13 -65 2 -30 14 -40 15 -70 4 -19 -7 -48 -14 -63 -17 -15 -2 -38
-18 -52 -34 l-26 -29 -171 1 c-195 1 -225 -7 -298 -82 l-39 -40 1317 0 c753 0
1317 4 1317 9 0 13 -61 71 -94 88 -36 19 -157 30 -249 23 -61 -4 -70 -3 -89
17 -29 31 -107 66 -144 66 -17 -1 -43 -8 -56 -17 -23 -15 -26 -15 -46 7 -12
13 -27 37 -33 54 -7 22 -19 34 -38 38 -15 3 -38 19 -49 35 -12 16 -42 43 -67
60 -38 26 -53 30 -93 28 -45 -3 -51 0 -90 39 -23 23 -42 46 -43 50 0 4 -2 15
-3 23 -2 8 -6 38 -10 67 -10 83 -27 156 -44 184 -14 25 -13 29 6 61 l21 34
-21 32 c-17 27 -19 41 -13 80 9 52 11 66 13 100 2 28 74 96 131 124 24 12 65
42 90 67 75 76 90 85 134 88 23 1 58 5 78 8 23 5 46 2 62 -7 37 -19 125 -105
142 -139 12 -21 23 -29 43 -29 15 0 52 -16 82 -35 77 -49 105 -46 144 17 11
17 14 28 7 33 -21 13 -10 32 23 42 40 12 57 -5 25 -25 -12 -8 -16 -18 -12 -29
17 -47 81 -46 140 3 l43 35 57 -26 c43 -19 54 -28 45 -37 -20 -20 -13 -41 22
-76 24 -24 44 -34 74 -37 23 -2 44 0 47 5 4 6 16 10 29 10 21 0 61 15 108 41
10 5 27 9 38 9 12 0 19 4 15 9 -3 6 11 13 32 17 29 5 46 2 73 -14 26 -15 40
-18 53 -10 17 9 101 12 142 4 25 -4 84 13 155 46 30 15 63 29 73 32 10 3 17
15 17 30 0 37 40 72 78 67 7 -1 12 9 12 24 0 17 -5 25 -17 25 -15 0 -15 1 0
18 10 10 17 27 17 37 0 10 3 15 8 11 4 -4 7 -28 7 -53 0 -43 1 -45 40 -59 27
-9 43 -10 50 -3 7 7 19 -1 37 -23 l27 -33 7 33 c6 31 8 32 25 16 46 -42 48 39
1 89 -18 19 -23 30 -15 38 7 7 22 -5 48 -37 l39 -47 18 23 c10 12 18 32 18 44
0 33 -39 65 -77 64 -18 -1 -39 4 -46 11 -8 6 -27 11 -43 10 -16 -1 -40 -1 -54
0 -24 1 -24 2 8 21 25 15 32 25 27 40 -5 14 1 23 24 35 43 22 31 45 -23 45
-42 1 -77 21 -89 53 -8 21 -35 22 -65 1 -21 -15 -22 -14 -22 20 0 40 -33 70
-44 40 -8 -20 -22 -10 -28 20 -7 36 56 100 83 85 14 -7 27 -6 47 3 22 11 28
21 30 55 2 23 -1 58 -6 77 -6 22 -6 38 0 44 10 10 -25 91 -46 104 -18 13 -48
-30 -36 -52 13 -24 13 -50 0 -50 -6 0 -16 12 -23 28 -22 50 -35 52 -80 12 -30
-26 -36 -28 -47 -15 -7 8 -18 15 -25 15 -7 0 -16 7 -19 16 -10 25 -7 84 4 84
6 0 10 -4 10 -9 0 -17 33 -21 50 -6 55 50 13 126 -117 210 -56 36 -63 45 -74
87 -25 106 -124 150 -229 103 -32 -15 -45 -16 -65 -7 -14 7 -25 20 -25 31 0
11 -14 28 -33 40 -30 18 -77 65 -77 76 0 12 30 4 46 -12 9 -9 34 -18 56 -19
32 -2 41 2 48 20 7 17 9 15 9 -16 1 -49 23 -50 45 -3 12 25 15 48 10 85 -6 45
-5 50 13 50 11 0 22 3 26 6 7 7 -27 108 -47 136 -17 24 -22 68 -8 68 4 0 13
-5 19 -11 9 -9 14 -5 19 17 l7 28 19 -43 c14 -35 21 -42 31 -32 31 31 -6 166
-48 177 -12 3 -32 19 -44 35 -24 33 -39 35 -81 14 -25 -13 -33 -13 -63 0 -30
12 -36 13 -41 0 -4 -12 -11 -12 -51 2 -25 8 -54 13 -65 10 -13 -3 -21 1 -26
15 -10 32 10 44 49 30 63 -23 63 -12 -2 66 -31 37 -60 62 -78 66 -84 20 -108
48 -30 36 34 -5 52 -16 86 -53 48 -51 66 -59 58 -24 -4 12 -2 28 2 36 12 19
51 -8 51 -36 0 -18 38 -53 48 -44 6 6 62 -12 62 -20 0 -5 6 -9 13 -9 8 0 24
-12 38 -26 30 -32 56 -47 69 -39 13 8 -4 41 -42 82 l-30 31 21 21 c31 31 26
59 -16 97 -21 18 -41 34 -46 34 -4 0 -5 11 -1 24 8 32 -48 77 -141 114 l-70
27 50 6 c41 5 44 6 15 8 -37 2 -127 39 -97 40 33 2 17 19 -33 36 -28 9 -48 20
-45 25 3 5 -21 18 -52 30 -157 59 -306 50 -373 -22 -15 -16 -17 -25 -9 -35 15
-17 34 -17 50 3 32 39 145 66 198 46 19 -7 14 -9 -25 -9 -92 -1 -128 -18 -209
-99 -67 -67 -76 -73 -95 -62 -19 12 -19 13 10 40 46 42 35 85 -18 71 -16 -4
-26 7 -52 51 -17 31 -53 72 -78 92 -34 27 -40 34 -22 29 14 -4 40 -16 58 -27
39 -24 62 -18 62 17 0 18 -9 31 -30 43 -36 21 -38 32 -5 32 16 0 25 6 25 16 0
29 -39 82 -68 92 -44 15 -132 14 -210 -3 -93 -19 -125 -36 -152 -80 -12 -19
-32 -38 -45 -41 -32 -8 -46 -26 -35 -44 8 -13 14 -13 42 -1 18 7 44 16 58 19
24 5 23 4 -8 -23 -42 -35 -58 -65 -42 -75 9 -5 9 -9 1 -14 -6 -4 -11 -3 -11 1
0 5 -18 19 -39 33 -32 19 -38 27 -30 41 5 10 9 31 9 48 0 35 -43 71 -85 71
-20 0 -29 7 -40 34 -30 72 -149 69 -194 -4 l-17 -29 -12 33 c-7 19 -12 38 -11
43 7 42 -50 107 -115 129 -33 11 -46 21 -46 35 0 35 -75 54 -100 24z m-59
-158 c-6 -8 -8 -17 -4 -20 3 -4 2 -7 -4 -7 -19 0 -23 28 -5 33 9 3 19 5 21 6
2 0 -2 -5 -8 -12z m892 -117 c-41 -25 -44 -45 -5 -35 48 12 66 15 122 20 86 8
47 -12 -48 -25 -46 -6 -90 -14 -98 -17 -9 -3 -14 1 -14 12 0 13 -6 16 -21 12
-32 -8 -18 16 22 35 19 10 43 18 54 18 16 0 13 -4 -12 -20z m-555 -8 c9 9 12
6 12 -12 0 -47 14 -53 43 -20 39 43 64 42 30 -1 -90 -111 -141 -139 -139 -77
1 29 -3 33 -29 38 -26 5 -30 9 -27 35 4 44 26 57 66 40 25 -11 36 -11 44 -3z
m1322 -266 c-7 -7 -14 -6 -21 1 -9 9 -7 12 9 10 14 -1 18 -5 12 -11z m-2554
-125 c-8 -34 -14 -63 -13 -65 1 -3 -2 -8 -7 -13 -12 -11 0 87 15 120 19 42 21
26 5 -42z m515 -38 c9 -9 2 -16 -26 -27 -21 -9 -40 -16 -42 -16 -3 0 -13 -10
-24 -22 -23 -29 -25 -11 -2 22 43 61 66 71 94 43z m2304 -73 c3 -5 12 -7 20
-3 10 3 15 -1 15 -14 0 -14 -6 -20 -22 -19 -30 2 -48 14 -48 32 0 16 26 19 35
4z m177 -52 c32 -28 47 -68 25 -68 -8 0 -20 13 -27 30 -7 16 -25 35 -40 42
-16 7 -26 17 -23 25 6 15 23 7 65 -29z m-99 12 c17 -20 11 -25 -17 -14 -16 6
-23 34 -8 34 4 0 15 -9 25 -20z m-3051 -315 c-2 -14 -8 -25 -13 -25 -12 0 -11
7 1 31 14 26 18 24 12 -6z m2742 -27 c8 -21 13 -38 10 -38 -3 0 -24 10 -47 22
-36 19 -39 23 -19 26 15 2 22 10 22 25 0 27 14 13 34 -35z m51 14 c-8 -8 -25
10 -25 26 0 13 2 13 14 -4 8 -10 13 -21 11 -22z m286 -254 c19 -6 40 -18 47
-25 22 -22 -16 -15 -73 12 -53 26 -36 35 26 13z m-3297 -129 c-19 -21 -39 -24
-50 -8 -11 18 37 50 54 37 10 -9 9 -14 -4 -29z m-133 -13 c5 3 9 -2 9 -10 0
-9 -8 -16 -19 -16 -20 0 -34 14 -44 43 -6 17 -4 16 19 -2 15 -11 30 -18 35
-15z m3539 19 c0 -8 -2 -15 -4 -15 -2 0 -6 7 -10 15 -3 8 -1 15 4 15 6 0 10
-7 10 -15z m-3570 -136 c0 -15 -22 -21 -31 -8 -14 22 -11 28 11 22 11 -3 20
-9 20 -14z m1092 -261 c-10 -10 -6 -17 14 -34 l26 -23 -35 -37 -34 -37 -30 23
c-17 12 -36 19 -42 16 -6 -4 -11 -5 -11 -3 0 3 20 17 45 31 26 16 45 34 45 44
0 19 20 45 29 37 2 -3 -1 -11 -7 -17z m2457 -74 c-9 -11 -9 -18 -1 -26 19 -19
14 -31 -11 -26 -13 2 -29 -2 -36 -9 -10 -11 -15 -10 -31 9 -22 28 -18 35 33
58 44 20 65 17 46 -6z m-565 -16 c-3 -4 -12 -8 -20 -8 -17 0 -19 27 -1 33 14
5 28 -13 21 -25z m-196 -43 c2 -30 0 -35 -17 -32 -29 4 -34 13 -27 42 10 40
41 33 44 -10z m22 -95 c0 -5 -4 -10 -10 -10 -5 0 -10 5 -10 10 0 6 5 10 10 10
6 0 10 -4 10 -10z m950 -7 c-1 -32 -25 -62 -74 -93 -27 -17 -50 -29 -52 -28
-2 2 -1 14 2 25 4 14 17 24 35 28 28 6 39 28 19 40 -16 10 -12 21 13 33 34 16
57 14 57 -5z m-805 -57 c-11 -8 -23 -12 -27 -10 -16 10 -7 20 19 22 26 2 26 1
8 -12z m-2183 -62 c2 -14 -11 -37 -40 -68 -71 -77 -77 -58 -12 46 35 57 45 61
52 22z m1515 -40 c2 -7 0 -21 -6 -32 -9 -17 -18 -19 -50 -15 -33 5 -46 1 -71
-21 -35 -29 -66 -35 -56 -11 3 8 2 15 -3 15 -5 0 -11 -10 -14 -22 -4 -12 -9
-19 -12 -16 -9 9 33 88 48 89 6 1 28 2 48 3 19 0 43 8 52 18 18 18 55 14 64
-8z m-484 -64 c9 0 17 7 17 15 0 8 5 15 10 15 18 0 11 -18 -15 -38 -30 -24
-59 -19 -73 13 -15 32 -3 39 23 15 12 -11 29 -20 38 -20z m1077 -137 c-1 -18
-42 -55 -69 -63 l-31 -9 31 58 c31 57 32 58 50 40 11 -11 19 -22 19 -26z
m-202 17 c2 -6 17 -10 34 -10 30 0 30 0 -33 -61 l-63 -62 -23 49 c-15 32 -20
51 -13 58 5 5 10 19 10 29 0 17 5 19 43 13 23 -4 44 -11 45 -16z m-1324 -9 c3
-5 -11 -19 -31 -31 -35 -21 -38 -21 -50 -4 -16 22 -12 25 34 34 21 4 39 8 40
9 1 0 4 -3 7 -8z m896 -10 c0 -6 -4 -12 -8 -15 -5 -3 -9 1 -9 9 0 8 4 15 9 15
4 0 8 -4 8 -9z m103 -61 l32 0 -49 -35 c-27 -19 -52 -35 -55 -35 -5 0 -7 91
-3 114 1 5 11 -3 23 -18 14 -18 30 -26 52 -26z m-1472 5 c24 -19 50 -35 58
-35 11 0 11 -3 1 -14 -14 -18 -43 -9 -36 10 5 13 -5 18 -31 15 -7 -1 -13 2
-13 7 0 5 -9 12 -20 15 -19 5 -29 37 -11 37 4 0 28 -16 52 -35z m312 17 c22
-19 42 -91 29 -104 -6 -6 -21 3 -41 23 -19 19 -28 35 -22 38 7 5 6 15 -3 32
-11 22 -11 26 3 26 9 0 24 -7 34 -15z m1025 -7 c-3 -3 -9 2 -12 12 -6 14 -5
15 5 6 7 -7 10 -15 7 -18z m-28 -49 c0 -19 -8 -44 -18 -56 -18 -22 -19 -22
-44 -6 -27 18 -43 44 -33 55 3 3 9 0 13 -6 6 -9 18 -3 42 17 19 17 36 30 38
30 1 0 2 -15 2 -34z m-2174 2 c7 -5 16 -8 20 -7 5 1 16 1 24 0 20 -2 -8 -24
-71 -56 -83 -43 -243 -42 -186 0 10 7 17 19 17 27 0 8 6 23 14 34 14 19 15 19
46 0 31 -18 33 -18 58 1 26 19 55 20 78 1z m2237 15 c7 -13 -22 -96 -43 -123
l-20 -25 6 45 c10 77 41 131 57 103z m305 -36 c8 -29 5 -34 -22 -53 -17 -11
-41 -23 -54 -27 -19 -4 -21 -3 -11 9 6 8 9 23 6 35 -4 15 3 29 25 50 36 32 44
30 56 -14z m-498 14 c0 -4 14 -26 31 -47 45 -56 50 -75 36 -145 -11 -60 -13
-63 -64 -95 -28 -19 -56 -34 -61 -34 -20 0 -20 53 0 86 15 26 18 43 13 81 -3
26 -8 63 -11 82 -5 38 17 81 41 81 8 0 15 -4 15 -9z m815 -8 c-31 -8 -85 -52
-85 -70 0 -9 -7 -24 -16 -34 -16 -17 -18 -17 -56 4 l-39 22 -30 -37 c-20 -25
-39 -38 -55 -38 -13 0 -24 -4 -24 -10 0 -5 -12 -10 -27 -10 -26 1 -26 2 12 20
22 11 73 45 112 75 40 30 81 55 90 56 10 0 34 7 53 14 19 7 46 13 60 13 20 0
21 -1 5 -5z m-1885 -12 c0 -4 14 -25 30 -46 31 -39 38 -69 20 -80 -19 -12
-120 68 -120 95 0 8 10 20 23 26 28 14 47 16 47 5z m520 -1 c8 -5 11 -10 5
-10 -5 0 -17 5 -25 10 -8 5 -10 10 -5 10 6 0 17 -5 25 -10z m832 -13 c-8 -9
-7 -21 3 -40 14 -27 13 -29 -28 -68 -52 -50 -93 -73 -102 -58 -12 18 24 95 58
126 45 41 92 68 69 40z m-1178 -42 c47 -48 85 -70 138 -80 45 -8 53 -18 61
-69 l6 -38 -37 7 c-20 4 -48 13 -62 20 -14 8 -45 20 -69 27 -24 7 -47 20 -51
28 -15 33 -28 57 -53 100 l-26 45 26 2 c18 1 38 -11 67 -42z m-309 15 c0 -11
-12 -15 -50 -15 -67 0 -93 18 -39 26 59 10 89 6 89 -11z m650 -60 c6 -4 19 -6
30 -4 43 8 73 -15 84 -64 15 -64 20 -147 11 -162 -15 -25 -150 36 -189 86 -11
14 -23 46 -27 70 -5 36 -12 47 -32 55 -30 11 -25 19 20 28 36 8 87 4 103 -9z
m1737 -16 c24 -15 -18 -62 -53 -60 -20 1 -24 7 -27 40 l-3 38 38 -7 c21 -4 41
-9 45 -11z m673 -28 c8 4 15 2 15 -3 0 -6 9 -20 20 -33 29 -34 24 -42 -14 -23
-19 9 -37 25 -41 37 -4 15 -8 17 -12 8 -4 -10 -11 -5 -24 15 -27 41 -23 48 11
19 17 -14 37 -23 45 -20z m204 10 c-11 -24 -13 -24 -25 -8 -18 23 -17 35 1 29
8 -4 17 -2 21 4 12 20 15 1 3 -25z m-3403 -17 c3 -6 17 -9 30 -6 15 3 30 -3
44 -18 l21 -23 -46 -15 c-51 -18 -71 -12 -95 26 -10 17 -10 23 6 34 22 16 31
16 40 2z m3353 -15 c29 -6 30 -8 14 -20 -16 -12 -73 -20 -73 -10 0 12 13 36
20 36 4 0 22 -3 39 -6z m-3489 -35 c0 -14 -17 -10 -23 5 -4 10 -1 13 9 9 7 -3
14 -9 14 -14z m2230 -15 c12 -19 20 -37 17 -40 -7 -8 -78 17 -96 32 -21 19 -6
44 28 44 23 0 34 -8 51 -36z m-2207 -14 c4 -16 -2 -24 -30 -35 -20 -8 -42 -15
-49 -15 -27 0 -13 29 24 48 48 25 49 25 55 2z m2003 -6 c10 -8 14 -13 7 -10
-6 4 -13 0 -15 -6 -3 -8 -9 -4 -17 10 -14 26 -3 29 25 6z m484 -13 c0 -5 3
-17 6 -26 5 -12 2 -16 -12 -13 -30 5 -43 20 -30 35 13 14 36 17 36 4z m465
-23 c3 -3 -13 -17 -36 -32 -45 -30 -103 -44 -113 -28 -7 11 23 25 45 20 7 -2
13 6 14 17 0 14 9 21 30 26 34 6 52 5 60 -3z m136 -25 c-12 -8 -19 -18 -16
-23 9 -15 -6 -39 -21 -33 -8 3 -14 -1 -14 -10 0 -25 -22 -32 -36 -12 -12 16
-10 21 17 37 22 13 29 24 24 37 -5 16 0 19 30 19 35 0 36 -1 16 -15z m291 -64
c5 -33 -7 -44 -61 -54 -37 -6 -40 7 -8 35 12 12 29 27 37 35 21 22 27 19 32
-16z m-3958 -34 c4 -10 -1 -15 -14 -15 -11 0 -20 -5 -20 -12 0 -6 -3 -9 -6 -6
-7 8 14 48 25 48 5 0 11 -7 15 -15z m128 -73 c-30 -4 -55 5 -47 17 3 6 18 5
38 -2 29 -11 30 -12 9 -15z m-122 -2 c0 -5 -6 -11 -12 -13 -7 -3 1 -6 18 -6
25 -1 30 -5 30 -22 -1 -17 5 -22 27 -23 15 -1 27 2 27 7 0 5 6 4 14 -2 8 -7
12 -21 9 -32 -6 -21 -36 -42 -46 -32 -4 3 -13 0 -22 -7 -9 -7 -18 -10 -22 -6
-3 3 -1 6 5 6 17 0 15 16 -5 35 -13 13 -27 15 -75 10 -49 -6 -58 -4 -58 9 0 8
-7 19 -16 24 -15 8 -14 11 6 25 29 20 39 15 32 -18 -5 -28 9 -32 53 -15 22 9
24 12 13 30 -7 11 -24 20 -37 20 -18 0 -21 3 -12 13 11 14 71 11 71 -3z m160
-25 c-7 -8 -16 -12 -21 -9 -16 9 -10 20 12 21 17 2 18 -1 9 -12z m374 -10 c-4
-8 -1 -15 5 -15 15 0 14 -17 -2 -23 -8 -3 -14 0 -14 6 0 7 -4 20 -8 30 -5 12
-2 17 9 17 10 0 13 -6 10 -15z m-525 -161 c30 -22 14 -31 -53 -32 -58 0 -103
16 -51 19 17 1 38 2 48 1 9 -1 17 5 17 13 0 19 10 19 39 -1z"/>
</g>
</svg>
